<?xml version="1.0" encoding="UTF-8"?>
<svg version="1.1" id="Layer_1" xmlns="http://www.w3.org/2000/svg" xmlns:xlink="http://www.w3.org/1999/xlink" x="0px" y="0px" width="100%" viewBox="0 0 500 500" enable-background="new 0 0 500 500" xml:space="preserve">
    <style>        
        svg {
            scale : 2;
        }
        path { 
            fill: black; 
        }
        @media (prefers-color-scheme: dark) {
            path {
                 fill: white; 
                 }
        }
    </style>
    <path fill="#0077ff" opacity="1.000000" stroke="none" 
        d="
            M158.558853,146.641830 
                C152.569168,146.736588 146.566757,146.624146 140.593719,146.990356 
                C135.635330,147.294373 131.938980,150.996384 132.238174,155.775345 
                C132.424805,158.756073 133.690964,161.887451 135.203918,164.533035 
                C149.818817,190.088943 164.590790,215.554993 179.314240,241.048843 
                C200.257095,277.311646 221.200760,313.573975 242.134521,349.842010 
                C246.177536,356.846588 254.780609,357.347870 259.321930,350.632935 
                C261.829926,346.924500 263.892090,342.909424 266.076080,338.988495 
                C268.214081,335.150146 267.811066,331.518890 265.577972,327.694855 
                C254.521210,308.760742 243.630890,289.729492 232.656433,270.747223 
                C218.017303,245.426208 203.342880,220.125610 188.708191,194.802063 
                C183.062454,185.032822 186.937363,178.173035 198.207840,177.979340 
                C203.038605,177.896317 207.872040,177.970871 212.704269,177.971283 
                C226.202057,177.972473 239.700363,177.900528 253.197449,177.997559 
                C262.423004,178.063873 266.595306,185.428085 262.030304,193.330078 
                C261.281281,194.626663 260.456024,195.892181 259.842133,197.251617 
                C257.067200,203.396652 247.653076,205.419830 242.609650,198.383118 
                C240.762131,195.805435 236.876083,194.018204 233.606506,193.302612 
                C229.652084,192.437134 225.358765,192.942993 221.223282,193.118454 
                C212.513153,193.488022 208.353851,201.024673 212.663788,208.652939 
                C217.406677,217.047470 222.306259,225.353439 227.131531,233.701477 
                C240.773376,257.302795 254.344498,280.945404 268.089661,304.486359 
                C272.745514,312.460266 281.067139,312.417175 285.980072,304.606506 
                C287.839386,301.650604 289.327515,298.456146 291.254303,295.549011 
                C294.296326,290.959167 293.918884,286.613007 291.216370,282.022736 
                C284.973633,271.419250 278.977722,260.669830 272.687805,250.094925 
                C270.095367,245.736343 270.116241,241.729156 272.679749,237.442780 
                C276.915497,230.360260 281.019836,223.198776 285.147552,216.052078 
                C295.276733,198.514587 305.416809,180.983307 315.494293,163.416138 
                C321.022614,153.779114 316.802368,146.645050 305.612396,146.626495 
                
            M310.864258,261.429382 
                C321.594238,242.862579 332.330414,224.299362 343.052246,205.727890 
                C351.495758,191.102768 360.033630,176.530441 368.308685,161.810471 
                C372.538483,154.286331 368.423737,147.133163 359.842010,146.659302 
                C356.354614,146.466751 352.835754,146.802429 349.353394,146.568085 
                C343.523590,146.175781 339.748566,148.583969 336.851990,153.701065 
                C322.766174,178.585175 308.709412,203.493210 294.110901,228.077179 
                C283.361725,246.178802 284.583008,242.779022 293.817719,259.135773 
                C297.800079,266.189484 303.866943,267.132477 310.864258,261.429382 
    z"/>
</svg>